<svg xmlns="http://www.w3.org/2000/svg" viewBox="0 0 70 58">
  <g stroke="#17171a" stroke-width="2" stroke-linejoin="round">
    <path d="M8 46 11 37 20 34 27 40 24 49 14 52Z" fill="#6a665d"/>
    <path d="M23 32 27 24 36 21 42 27 39 35 30 38Z" fill="#777268"/>
    <path d="M37 19 42 11 51 9 58 15 55 23 46 26Z" fill="#625f59"/>
    <path d="M52 33 56 27 64 28 68 35 63 41 56 40Z" fill="#57544f"/>
    <path d="M14 40 21 37M30 27 36 24M46 14 52 12M57 32 63 34" stroke="#a9a18f" stroke-width="1.3" opacity=".75"/>
  </g>
</svg>
