<svg xmlns="http://www.w3.org/2000/svg" viewBox="0 0 76 58">
  <defs><filter id="s" x="-25%" y="-30%" width="150%" height="170%"><feDropShadow dx="0" dy="3" stdDeviation="2" flood-color="#050507" flood-opacity=".72"/></filter></defs>
  <g filter="url(#s)" stroke="#17171b" stroke-width="2.4" stroke-linejoin="round">
    <path d="M7 44 13 20 25 18 27 10 39 12 42 21 54 19 59 29 69 31 67 48 47 50 41 42 28 47 18 43Z" fill="#59564f"/>
    <path d="M14 24 25 22 29 31 40 29 45 23 54 24M18 43 21 33 32 35 38 43M48 49 50 36 62 36" fill="none" stroke="#a39b86" stroke-width="1.6" opacity=".75"/>
    <path d="M27 10 31 18 39 12M42 21 39 29 45 23" fill="#2f2d2a"/>
  </g>
</svg>
