<svg xmlns="http://www.w3.org/2000/svg" viewBox="0 0 64 72">
  <defs>
    <filter id="s" x="-30%" y="-30%" width="160%" height="180%">
      <feDropShadow dx="0" dy="3" stdDeviation="2" flood-color="#020806" flood-opacity=".7"/>
    </filter>
  </defs>
  <g filter="url(#s)" stroke="#071109" stroke-width="2.6" stroke-linejoin="round">
    <path d="M29 61 31 44 35 44 37 61 34 65Z" fill="#70543a"/>
    <path d="M8 43C4 34 11 28 18 29 16 20 25 14 33 19 39 10 52 17 49 27 59 28 62 39 54 45 57 54 44 58 38 53 32 61 21 56 22 50 14 53 7 49 8 43Z" fill="#1f4329"/>
    <path d="M13 39C14 31 22 28 28 31 29 23 40 20 44 27 51 27 55 34 51 40 45 37 40 39 37 44 31 39 25 40 22 45 19 41 16 39 13 39Z" fill="#35633b" stroke-width="1.8"/>
    <path d="M21 27C25 22 31 22 35 25M39 22C43 21 47 24 48 28M17 45C22 48 26 48 31 45" fill="none" stroke="#6f8b4c" stroke-width="1.4" stroke-linecap="round" opacity=".7"/>
  </g>
</svg>
