<svg xmlns="http://www.w3.org/2000/svg" viewBox="0 0 72 38">
  <g fill="none" stroke-linecap="round">
    <path d="M4 14C12 8 18 20 27 14S43 8 52 14 64 20 68 14M8 25C16 19 22 31 31 25S47 19 56 25 64 29 68 25" stroke="#10272f" stroke-width="5" opacity=".8"/>
    <path d="M4 14C12 8 18 20 27 14S43 8 52 14 64 20 68 14M8 25C16 19 22 31 31 25S47 19 56 25 64 29 68 25" stroke="#4d8fa5" stroke-width="2"/>
    <path d="M19 11C22 9 24 9 27 11M43 22C46 20 49 20 52 22" stroke="#8bc0c8" stroke-width="1.3" opacity=".8"/>
  </g>
</svg>
